<?xml version="1.0" standalone="no"?>
<!DOCTYPE svg PUBLIC "-//W3C//DTD SVG 20010904//EN"
 "http://www.w3.org/TR/2001/REC-SVG-20010904/DTD/svg10.dtd">
<svg version="1.0" xmlns="http://www.w3.org/2000/svg"
 width="3136.000000pt" height="3136.000000pt" viewBox="0 0 3136.000000 3136.000000"
 preserveAspectRatio="xMidYMid meet">
<metadata>
Created by potrace 1.11, written by Peter Selinger 2001-2013
</metadata>
<g transform="translate(0.000000,3136.000000) scale(0.100000,-0.100000)"
fill="#000000" stroke="none">
<path d="M5347 18334 c-1 -1 -31 -5 -67 -8 -36 -3 -80 -8 -98 -11 -66 -9 -108
-15 -132 -20 -14 -3 -36 -7 -50 -10 -14 -3 -40 -9 -58 -14 -18 -5 -36 -10 -40
-10 -35 -4 -216 -65 -224 -76 -4 -5 -8 -7 -8 -2 0 11 -120 -53 -120 -64 0 -5
-5 -9 -11 -9 -33 0 -89 -94 -89 -150 0 -31 12 -45 134 -158 25 -23 53 -57 63
-75 18 -36 20 -108 3 -152 -7 -17 -13 -37 -15 -45 -2 -8 -22 -76 -45 -150 -23
-74 -49 -162 -58 -195 -9 -33 -19 -62 -22 -65 -3 -3 -7 -14 -8 -25 -2 -11 -15
-56 -29 -100 -14 -44 -27 -87 -28 -95 -2 -8 -4 -15 -5 -15 -1 0 -3 -7 -5 -15
-3 -17 -34 -117 -43 -140 -7 -19 -7 -18 -16 -60 -5 -19 -11 -39 -14 -45 -4 -5
-7 -14 -9 -20 -1 -5 -13 -48 -28 -95 -14 -47 -28 -92 -30 -100 -2 -8 -25 -82
-50 -165 -50 -161 -85 -274 -89 -290 -2 -5 -6 -23 -11 -40 -4 -16 -10 -34 -14
-40 -3 -5 -6 -14 -7 -20 -2 -12 -46 -158 -70 -235 -10 -30 -19 -59 -20 -65 -1
-5 -14 -48 -29 -95 -14 -47 -28 -92 -30 -100 -3 -8 -25 -82 -51 -165 -25 -82
-47 -157 -49 -165 -2 -8 -4 -16 -5 -17 -2 -2 -3 -6 -4 -10 -10 -43 -39 -132
-47 -146 -6 -11 -8 -21 -5 -24 3 -3 -1 -18 -10 -34 -8 -16 -14 -31 -13 -34 0
-3 -9 -38 -21 -78 -45 -146 -107 -230 -219 -294 -104 -60 -142 -104 -147 -168
-3 -56 33 -97 111 -126 25 -9 162 -22 215 -20 30 1 66 0 90 -2 14 -2 40 0 58
4 17 4 34 3 37 -1 3 -4 21 -4 40 0 19 4 37 4 40 0 3 -4 21 -4 40 0 19 4 37 4
40 0 3 -4 21 -4 40 0 19 4 37 4 40 0 3 -4 21 -4 40 0 19 4 37 4 40 0 3 -4 21
-4 40 0 19 4 37 4 40 0 3 -4 21 -4 40 0 19 4 37 4 40 0 3 -4 20 -5 37 -1 18 4
35 8 38 8 3 1 24 -2 48 -7 23 -4 45 -3 48 1 3 5 10 7 15 4 13 -8 226 -8 239 0
5 3 10 3 10 -2 0 -8 107 -9 116 0 3 2 20 1 39 -3 19 -4 36 -5 39 -3 3 3 33 7
68 8 35 2 73 6 86 9 12 3 31 8 42 10 73 17 150 91 150 145 0 33 -16 56 -90
129 -82 80 -98 133 -75 262 3 19 7 45 9 57 2 12 8 28 12 35 5 7 9 18 10 23 1
6 27 91 58 190 32 99 59 191 62 204 3 14 8 29 12 35 3 6 7 16 8 21 1 6 12 44
25 85 13 41 24 77 24 80 1 3 4 12 7 20 9 23 89 282 93 303 2 9 7 22 10 27 4 6
8 22 11 35 10 57 90 244 129 305 54 82 74 103 144 148 110 71 210 71 278 1 20
-21 38 -46 40 -56 8 -45 10 -94 3 -98 -4 -3 -11 -22 -15 -42 -4 -21 -10 -42
-14 -48 -4 -5 -22 -50 -40 -100 -17 -49 -38 -103 -45 -120 -8 -16 -19 -46 -26
-65 -7 -19 -16 -44 -21 -55 -53 -119 -242 -646 -253 -705 -3 -14 -7 -36 -10
-49 -18 -82 -27 -267 -14 -286 3 -6 8 -24 11 -40 8 -55 19 -95 28 -101 5 -3 9
-12 9 -20 0 -42 121 -186 202 -242 39 -27 161 -92 173 -92 3 0 10 -2 17 -5 54
-17 132 -35 169 -40 24 -3 55 -7 69 -10 28 -6 255 -6 310 0 105 11 165 23 260
51 71 22 213 86 230 104 3 3 25 18 50 34 100 63 234 232 255 323 3 10 9 36 14
58 12 50 8 161 -7 197 -6 14 -21 30 -34 34 -19 6 -30 -2 -68 -44 -48 -53 -98
-76 -146 -68 -61 11 -70 78 -29 205 14 43 27 87 30 97 2 11 17 60 33 109 27
83 73 230 109 350 8 28 19 61 23 75 10 29 72 230 76 245 1 6 10 33 19 60 30
93 67 220 71 245 3 14 7 32 11 40 8 21 12 60 17 183 8 228 -58 416 -200 563
-83 86 -188 154 -284 184 -25 7 -49 16 -55 19 -5 3 -17 7 -25 8 -150 24 -356
23 -475 -4 -11 -2 -31 -6 -45 -9 -241 -48 -461 -189 -663 -423 -20 -24 -39
-42 -41 -40 -3 4 36 138 51 179 3 8 7 20 9 25 9 32 47 155 79 255 20 63 38
123 40 133 7 32 16 61 25 82 8 19 86 272 94 305 2 8 12 44 21 80 20 79 25 231
9 285 -19 65 -47 128 -65 150 -43 49 -56 62 -95 93 -64 49 -145 79 -294 109
-24 5 -338 11 -343 7z"/>
<path d="M19447 18334 c-1 -1 -40 -5 -87 -8 -181 -14 -207 -17 -292 -35 -24
-5 -50 -9 -58 -9 -15 -1 -55 -9 -55 -12 0 -1 -9 -4 -20 -6 -34 -8 -50 -12 -50
-14 0 -1 -12 -4 -27 -6 -67 -11 -328 -127 -328 -146 0 -4 -5 -8 -11 -8 -40 0
-299 -234 -299 -270 0 -5 -4 -10 -9 -10 -5 0 -11 -8 -15 -17 -5 -18 -12 -29
-49 -85 -10 -16 -15 -28 -11 -28 3 0 2 -6 -5 -13 -9 -12 -40 -128 -56 -212 -6
-34 -6 -185 0 -230 13 -99 17 -118 25 -140 5 -13 6 -26 2 -28 -4 -3 -65 -5
-137 -6 -287 -4 -374 -36 -392 -146 -15 -93 -9 -111 69 -184 221 -209 241
-238 244 -363 2 -42 -4 -103 -12 -135 -8 -32 -16 -67 -19 -77 -5 -22 -34 -113
-42 -136 -3 -8 -8 -24 -10 -35 -2 -11 -7 -31 -12 -45 -6 -14 -22 -65 -36 -115
-15 -49 -29 -97 -32 -105 -3 -8 -7 -19 -9 -25 -36 -126 -48 -162 -55 -171 -5
-6 -6 -14 -3 -17 3 -3 2 -12 -2 -19 -5 -7 -9 -15 -10 -18 -2 -13 -26 -97 -31
-110 -3 -8 -7 -19 -8 -25 -2 -5 -11 -37 -21 -70 -10 -33 -19 -62 -19 -65 -1
-3 -4 -12 -8 -20 -3 -8 -16 -49 -27 -90 -21 -72 -57 -190 -86 -277 -14 -43
-25 -89 -26 -110 -1 -7 -5 -13 -10 -13 -4 0 -8 -7 -8 -16 0 -17 -38 -111 -55
-133 -31 -44 -110 -113 -162 -144 -120 -70 -147 -112 -134 -209 1 -4 14 -21
31 -36 37 -36 95 -54 183 -58 37 -2 71 -6 76 -9 5 -3 12 -1 15 4 3 4 24 5 46
1 22 -4 42 -4 45 0 3 4 23 4 45 0 22 -4 40 -5 40 -1 0 7 118 4 137 -3 7 -3 15
-1 17 3 3 5 23 5 43 2 21 -4 55 -4 75 -1 20 4 42 4 48 0 6 -4 28 -4 48 0 20 3
54 3 75 -1 20 -3 37 -4 37 0 0 7 89 5 96 -2 3 -3 20 -1 38 3 19 4 40 4 46 0 7
-4 24 -4 39 0 14 4 36 4 47 0 11 -5 26 -5 33 -1 7 5 30 5 52 1 22 -4 41 -4 44
0 3 4 23 4 45 0 22 -4 40 -5 40 -1 0 3 21 5 47 4 27 -1 64 -3 83 -3 45 -1 169
7 196 14 133 29 210 102 190 179 -3 13 -39 58 -80 100 -57 57 -77 85 -82 114
-15 73 -6 164 23 241 3 9 7 23 9 29 1 7 18 64 37 125 20 62 52 167 72 233 20
66 40 131 45 145 4 14 22 72 40 130 17 58 45 150 63 205 17 55 32 105 33 110
2 12 94 314 134 440 15 50 40 131 55 180 15 50 37 119 49 155 l21 64 142 2
c78 1 152 4 166 8 13 3 42 8 63 12 119 18 223 112 257 229 35 126 -14 212
-138 241 -55 13 -92 15 -308 17 l-233 2 -41 27 c-51 34 -81 96 -90 190 -4 40
-7 80 -6 88 2 34 13 126 18 148 3 12 7 32 10 43 17 81 81 211 125 257 74 78
179 129 285 138 l65 6 -15 -28 c-75 -145 -80 -288 -16 -418 29 -57 94 -135
137 -163 39 -26 130 -70 159 -78 17 -5 32 -9 35 -10 3 -1 34 -5 70 -10 204
-26 449 14 578 96 57 36 142 117 142 136 0 7 4 13 8 13 18 0 47 108 49 186 3
106 -22 191 -77 268 -28 39 -157 161 -186 176 -16 8 -31 17 -34 20 -11 12
-129 70 -180 89 -104 38 -257 74 -372 86 -24 3 -65 8 -93 11 -46 5 -492 13
-498 8z"/>
<path d="M30588 18335 c-2 -1 -43 -5 -93 -9 -95 -6 -154 -13 -195 -21 -14 -3
-36 -8 -50 -10 -30 -6 -106 -21 -140 -29 -60 -14 -176 -50 -184 -58 -6 -4 -17
-8 -25 -8 -9 0 -41 -13 -72 -28 -120 -60 -179 -120 -184 -189 -3 -49 7 -69 63
-118 114 -101 137 -131 145 -189 4 -33 -18 -143 -40 -196 -3 -8 -7 -19 -8 -25
-2 -5 -17 -57 -35 -115 -17 -58 -43 -143 -56 -190 -14 -47 -34 -112 -45 -145
-11 -33 -23 -67 -25 -75 -5 -13 -7 -13 -17 0 -42 53 -279 166 -391 186 -16 3
-32 7 -35 9 -17 10 -162 20 -291 20 -146 0 -240 -8 -295 -25 -16 -5 -41 -11
-55 -14 -14 -2 -56 -17 -95 -31 -38 -15 -80 -29 -92 -32 -12 -3 -28 -11 -34
-19 -6 -8 -17 -14 -24 -14 -17 0 -220 -137 -274 -185 -74 -66 -166 -160 -207
-212 -21 -26 -43 -52 -49 -58 -32 -30 -171 -258 -217 -355 -36 -79 -101 -239
-99 -247 1 -2 -8 -27 -18 -55 -17 -46 -38 -117 -42 -140 0 -4 -7 -34 -15 -67
-7 -33 -16 -75 -19 -93 -3 -18 -8 -46 -11 -63 -26 -147 -36 -441 -20 -570 5
-33 9 -69 10 -80 1 -11 5 -26 9 -32 5 -7 6 -13 3 -13 -3 0 1 -18 9 -40 8 -22
14 -41 14 -43 -1 -5 14 -45 39 -107 31 -74 122 -216 179 -275 56 -59 158 -145
171 -145 7 0 12 -4 12 -8 0 -12 153 -87 229 -112 120 -40 335 -57 456 -36 241
42 437 155 601 348 l32 36 13 -26 c31 -63 112 -151 184 -201 55 -38 155 -93
155 -85 0 4 6 2 13 -4 14 -12 128 -48 178 -56 19 -3 45 -8 59 -11 47 -10 267
-12 326 -3 97 14 211 46 263 72 27 13 52 22 55 19 3 -4 6 -1 6 5 0 7 5 12 12
12 13 0 111 61 116 72 2 5 8 8 13 8 37 0 239 228 239 270 0 5 4 10 8 10 10 0
41 85 47 130 14 101 0 181 -35 200 -26 14 -24 15 -85 -44 -31 -31 -68 -57 -85
-61 -48 -11 -89 3 -105 36 -17 32 -14 61 15 159 8 25 14 47 15 50 0 3 4 14 7
25 4 11 21 67 38 125 18 58 50 163 72 233 22 70 41 133 42 140 2 14 55 185 63
207 3 8 7 20 8 25 2 6 11 37 21 70 10 33 19 63 20 68 1 4 3 9 4 12 1 3 3 8 5
13 1 4 4 14 7 22 6 18 39 130 43 145 1 5 5 17 8 25 5 14 72 234 82 270 8 30
48 163 157 515 62 203 94 310 115 385 2 8 3 15 2 15 -1 0 3 9 9 21 6 11 13 32
16 45 2 13 16 60 31 104 96 296 106 454 36 599 -25 51 -90 122 -146 159 -43
28 -155 73 -201 81 -16 2 -29 5 -29 6 0 6 -330 21 -337 15z m-1145 -1755 c86
-41 86 -29 12 -271 -37 -118 -83 -266 -103 -329 -19 -63 -37 -119 -38 -125 -1
-5 -17 -55 -34 -110 -17 -55 -33 -111 -36 -125 -3 -13 -10 -30 -16 -37 -6 -7
-8 -13 -4 -13 3 0 1 -12 -5 -27 -6 -16 -12 -35 -14 -43 -2 -8 -35 -118 -75
-245 -110 -357 -157 -432 -272 -439 -97 -6 -161 41 -194 142 -25 78 -25 336 0
482 2 14 7 42 10 62 5 32 16 84 32 151 2 9 6 27 9 38 4 18 14 55 40 139 1 3 5
19 9 35 4 17 11 39 16 50 4 11 23 58 41 105 38 99 148 319 169 340 3 3 22 28
42 56 66 91 152 161 228 185 40 13 134 2 183 -21z"/>
<path d="M14957 17134 c-1 -1 -36 -5 -77 -8 -72 -6 -155 -23 -240 -50 -49 -16
-210 -98 -210 -107 0 -5 -5 -9 -11 -9 -24 0 -179 -136 -260 -227 -39 -45 -125
-177 -152 -235 -27 -58 -67 -168 -62 -168 3 0 1 -9 -5 -20 -6 -11 -12 -40 -14
-63 -1 -24 -5 -47 -8 -52 -9 -17 16 -97 34 -109 12 -7 27 -5 57 10 22 10 41
22 41 26 0 4 17 15 37 23 76 32 149 -15 169 -108 13 -62 25 -125 29 -157 3
-19 7 -45 9 -56 2 -12 7 -39 11 -60 3 -22 8 -52 11 -69 6 -33 11 -62 18 -116
10 -70 56 -344 66 -394 5 -27 12 -70 15 -95 7 -53 12 -85 25 -160 5 -30 12
-70 15 -87 3 -18 7 -48 10 -65 10 -55 16 -92 20 -118 8 -48 26 -155 30 -175
18 -99 87 -280 127 -331 48 -63 132 -133 199 -165 62 -31 129 -58 162 -65 4
-1 8 -2 10 -3 1 -2 11 -4 22 -6 11 -2 37 -8 58 -12 l39 -8 -64 -53 c-34 -29
-70 -59 -78 -65 -32 -26 -142 -89 -206 -118 -121 -55 -333 -97 -335 -67 0 7
-2 20 -4 28 -2 8 -7 31 -11 50 -24 137 -103 299 -196 404 -57 65 -186 146
-257 161 -12 3 -31 8 -43 11 -50 12 -215 11 -268 -3 -222 -57 -358 -251 -357
-512 0 -52 3 -106 8 -120 26 -89 34 -112 57 -161 68 -147 198 -274 362 -355
30 -14 63 -31 72 -36 10 -5 27 -9 37 -9 11 0 22 -4 25 -9 4 -5 25 -12 49 -16
54 -9 76 -13 107 -20 115 -25 395 -23 541 5 30 6 68 13 84 16 17 2 38 7 47 10
9 3 26 7 37 9 12 3 31 7 43 10 47 10 247 79 308 107 108 48 260 128 355 186
102 62 275 179 290 196 6 6 21 19 35 27 23 16 214 174 250 208 106 101 154
148 205 203 89 95 179 198 189 216 5 10 15 22 21 27 6 6 29 33 50 60 22 28 43
55 48 60 4 6 25 35 47 65 22 30 44 60 50 67 5 7 10 16 10 22 0 5 4 11 8 13 11
4 102 137 102 148 0 5 6 15 13 22 8 7 36 51 63 98 27 47 54 94 61 105 6 11 35
65 63 120 28 55 55 107 60 115 25 48 137 314 146 345 1 6 18 55 38 110 30 85
68 209 81 265 2 8 11 47 20 85 9 39 19 84 21 100 3 17 6 39 9 50 19 90 26 373
11 475 -12 82 -48 214 -65 233 -5 7 -10 17 -11 22 -2 11 -48 92 -65 113 -61
80 -184 171 -251 187 -10 2 -35 8 -55 13 -36 9 -165 8 -205 -1 -62 -15 -111
-32 -125 -44 -8 -7 -20 -13 -25 -13 -20 -1 -121 -89 -161 -140 -24 -30 -48
-61 -54 -67 -5 -7 -10 -15 -10 -18 0 -2 -6 -20 -15 -40 -8 -19 -14 -38 -13
-41 0 -4 -3 -10 -8 -13 -9 -6 -42 -105 -48 -146 -2 -11 -4 -20 -5 -20 -3 0 -7
-26 -17 -110 -14 -116 -6 -264 19 -360 5 -22 12 -47 13 -55 28 -129 141 -322
260 -444 l58 -59 -33 -81 c-51 -125 -160 -346 -180 -366 -3 -3 -18 -25 -34
-49 -36 -55 -40 -61 -96 -120 -133 -142 -242 -133 -269 21 -6 35 -13 81 -16
103 -3 22 -7 51 -9 65 -2 14 -7 50 -10 80 -4 30 -9 69 -11 85 -3 17 -7 48 -10
70 -3 22 -8 56 -11 75 -3 19 -7 51 -9 70 -10 73 -26 196 -30 220 -2 14 -16
111 -30 215 -14 105 -28 208 -31 230 -3 22 -7 54 -9 70 -8 79 -33 211 -55 295
-11 41 -22 82 -24 90 -11 43 -61 152 -96 210 -111 185 -264 276 -493 295 -120
10 -137 11 -140 9z"/>
<path d="M2040 17120 c0 -3 -24 -6 -53 -6 -28 -1 -108 -12 -177 -24 -69 -12
-132 -23 -140 -25 -8 -1 -22 -5 -30 -8 -8 -4 -26 -8 -40 -11 -61 -11 -311
-102 -372 -136 -10 -6 -24 -10 -32 -10 -8 0 -16 -3 -18 -7 -1 -5 -32 -23 -68
-41 -36 -18 -74 -38 -85 -45 -74 -44 -180 -118 -240 -165 -72 -56 -298 -280
-325 -321 -8 -12 -23 -33 -34 -44 -38 -45 -131 -196 -178 -289 -174 -347 -232
-750 -158 -1084 12 -54 60 -186 71 -198 5 -6 9 -18 9 -28 0 -10 5 -18 10 -18
6 0 10 -5 10 -10 0 -23 104 -164 173 -233 166 -170 418 -291 712 -342 206 -37
316 -45 560 -44 161 1 211 3 275 13 19 3 55 8 81 10 25 3 52 7 60 10 7 3 30 7
49 10 19 3 69 15 110 26 41 11 84 22 95 24 11 2 47 14 80 26 33 12 65 23 70
24 47 14 250 111 340 164 60 35 185 123 247 173 61 50 222 209 263 260 11 13
37 45 58 71 20 25 37 51 37 57 0 6 5 11 10 11 6 0 10 7 10 15 0 8 5 15 10 15
6 0 10 6 10 14 0 8 3 16 8 18 10 4 72 110 101 173 56 119 71 156 104 255 65
192 101 399 101 575 0 110 -17 260 -35 305 -5 14 -11 35 -13 46 -10 52 -74
185 -127 264 -66 99 -193 225 -294 292 -99 66 -256 136 -365 164 -39 10 -97
23 -120 28 -14 3 -36 7 -49 10 -35 8 -177 27 -241 33 -80 7 -470 10 -470 3z
m227 -515 c27 -6 72 -63 80 -102 12 -58 4 -259 -12 -305 -2 -7 -6 -29 -9 -48
-14 -87 -98 -418 -123 -480 -4 -8 -7 -17 -8 -20 -4 -14 -29 -96 -30 -100 -16
-59 -50 -158 -57 -167 -6 -7 -8 -13 -5 -13 3 0 -10 -44 -29 -97 -20 -54 -46
-127 -59 -163 -12 -36 -29 -78 -36 -95 -7 -16 -13 -32 -14 -35 0 -3 -11 -27
-23 -54 -12 -27 -22 -54 -22 -61 0 -8 -3 -15 -8 -17 -4 -1 -19 -25 -33 -53
-14 -27 -32 -61 -40 -75 -18 -32 -88 -119 -114 -143 -89 -80 -239 -51 -261 50
-10 45 -14 214 -5 228 3 6 6 24 7 40 0 17 7 57 14 90 7 33 14 67 15 75 2 8 4
15 5 15 1 0 3 9 5 20 6 35 16 78 32 140 8 33 16 67 18 75 6 26 83 282 105 350
12 36 23 70 24 75 1 6 11 35 21 65 11 30 20 57 20 60 1 3 4 12 7 20 3 8 14 38
23 65 130 372 257 584 388 649 47 23 64 24 124 11z"/>
<path d="M9086 17123 c-1 -2 -29 -5 -62 -8 -58 -6 -95 -11 -144 -20 -14 -3
-41 -7 -60 -10 -19 -3 -62 -13 -95 -22 -33 -8 -64 -16 -70 -17 -26 -6 -161
-49 -170 -54 -5 -4 -15 -7 -20 -8 -20 -3 -152 -71 -174 -90 -47 -40 -73 -85
-78 -134 l-4 -49 90 -88 c49 -48 95 -101 101 -117 13 -36 15 -104 4 -137 -4
-13 -8 -28 -9 -34 0 -5 -17 -64 -38 -130 -66 -207 -79 -250 -82 -265 -2 -8
-12 -40 -23 -70 -11 -30 -20 -57 -20 -60 0 -3 -3 -12 -6 -20 -3 -8 -18 -60
-35 -115 -16 -55 -48 -158 -71 -230 -22 -71 -43 -139 -45 -150 -2 -11 -10 -40
-18 -65 -20 -60 -147 -471 -152 -490 -13 -52 -50 -152 -72 -190 -27 -48 -119
-140 -140 -140 -7 0 -13 -4 -13 -10 0 -5 -6 -10 -12 -10 -19 -1 -105 -66 -122
-92 -37 -57 -20 -136 37 -175 33 -22 111 -41 166 -39 17 1 31 -2 31 -5 0 -4
18 -3 40 1 22 4 40 4 40 0 0 -4 15 -4 34 0 19 4 39 4 46 0 6 -4 26 -4 43 0 18
3 47 3 65 -1 17 -4 34 -4 37 1 2 4 21 4 42 1 21 -4 59 -4 86 -1 26 4 47 3 47
0 0 -4 18 -4 40 0 22 4 40 4 40 0 0 -4 15 -5 33 -1 18 5 41 5 52 1 11 -4 31
-4 45 0 14 4 34 4 45 0 11 -4 29 -4 40 0 11 4 32 4 47 -1 15 -4 30 -4 33 0 2
5 23 5 45 1 22 -4 42 -4 45 0 3 4 22 4 42 1 21 -4 55 -4 75 -1 20 4 42 4 48 0
7 -4 26 -4 43 -1 18 4 49 4 70 0 20 -3 40 -3 42 1 3 4 21 4 40 0 19 -4 35 -5
35 -1 0 3 37 7 83 7 110 2 188 26 237 73 41 39 56 76 46 114 -3 13 -36 54 -73
93 -38 38 -76 84 -84 102 -22 45 -18 140 9 222 47 145 123 396 125 413 1 9 5
17 9 17 4 0 8 9 8 20 0 10 4 29 9 42 6 13 26 77 46 143 20 66 50 163 66 215
17 52 32 102 34 111 2 9 11 39 20 65 9 27 18 56 20 64 14 59 59 180 91 240 94
180 276 283 397 225 95 -45 114 -130 62 -274 -9 -25 -19 -50 -23 -55 -3 -6 -7
-15 -9 -21 -1 -5 -25 -71 -54 -145 -28 -74 -62 -162 -74 -195 -13 -33 -42
-109 -65 -170 -74 -193 -92 -239 -100 -265 -5 -14 -17 -49 -28 -77 -11 -29
-19 -53 -16 -53 2 0 0 -10 -5 -23 -5 -13 -12 -41 -15 -63 -4 -21 -8 -46 -11
-54 -23 -80 -21 -246 5 -337 75 -269 301 -431 665 -479 88 -11 335 -2 420 16
28 6 61 13 75 15 96 16 282 103 378 178 169 129 272 332 251 493 -7 55 -33
104 -56 104 -7 0 -38 -24 -68 -54 -36 -37 -65 -57 -87 -61 -98 -16 -131 42
-93 163 8 26 30 99 50 162 20 63 38 122 40 130 2 8 26 87 53 175 28 88 58 187
67 220 9 33 23 74 30 90 8 17 16 42 18 56 10 55 60 197 89 254 33 66 87 145
99 145 4 0 10 8 13 18 3 9 35 37 71 61 136 93 264 79 322 -33 19 -37 13 -111
-17 -188 -12 -32 -21 -61 -22 -65 0 -5 -5 -17 -11 -28 -6 -11 -12 -24 -13 -30
-2 -5 -26 -68 -54 -140 -28 -71 -52 -134 -54 -140 -2 -5 -8 -23 -14 -38 -7
-16 -12 -31 -12 -34 0 -3 -6 -19 -14 -36 -15 -34 -118 -305 -132 -347 -4 -14
-7 -28 -6 -32 1 -5 -3 -8 -8 -8 -6 0 -10 -8 -10 -17 0 -10 -7 -37 -15 -60 -8
-22 -16 -52 -19 -65 -3 -12 -8 -34 -11 -48 -23 -97 -26 -290 -5 -370 62 -247
311 -442 608 -476 32 -3 60 -8 64 -11 10 -6 237 -4 313 3 129 11 281 51 375
98 27 14 50 23 50 20 0 -3 6 0 13 6 6 6 39 28 72 50 122 78 218 191 266 312
39 98 45 242 12 286 -30 40 -45 38 -94 -13 -24 -26 -57 -53 -72 -61 -33 -18
-92 -13 -114 8 -17 18 -23 82 -11 122 5 17 11 38 13 46 2 8 10 34 19 58 8 23
15 45 15 47 0 5 57 190 107 346 8 25 16 54 18 65 3 10 12 39 21 64 9 25 19 56
21 69 3 14 7 28 10 33 3 5 14 37 24 71 10 34 36 121 58 192 75 242 92 310 99
390 24 290 -40 494 -211 665 -38 39 -73 70 -77 70 -4 0 -14 6 -21 13 -29 30
-155 86 -233 106 -127 32 -337 34 -485 6 -14 -3 -34 -7 -45 -9 -11 -2 -33 -9
-50 -16 -16 -6 -32 -11 -35 -11 -17 2 -180 -64 -220 -90 -8 -5 -25 -13 -38
-19 -21 -9 -71 -42 -98 -65 -7 -5 -27 -21 -46 -35 -69 -52 -207 -201 -268
-290 -13 -19 -27 -37 -30 -40 -14 -13 -50 -70 -50 -80 0 -18 -20 -11 -20 8 -3
135 -85 321 -187 427 -83 87 -216 179 -272 188 -9 2 -26 9 -38 15 -13 7 -23
10 -23 8 0 -3 -10 -2 -23 3 -77 30 -352 33 -482 6 -256 -53 -434 -146 -613
-324 -84 -85 -120 -126 -187 -216 -13 -19 -14 -16 -16 33 -1 28 -2 55 -3 60
-1 4 -6 27 -10 52 -18 100 -100 229 -194 302 -55 44 -169 90 -257 105 -30 5
-314 10 -319 6z"/>
<path d="M21767 17123 c-2 -1 -32 -5 -68 -7 -136 -10 -309 -44 -464 -90 -69
-20 -195 -64 -208 -73 -7 -4 -14 -8 -17 -9 -21 -4 -160 -70 -235 -112 -114
-63 -135 -77 -135 -84 0 -5 -5 -8 -11 -8 -11 0 -116 -76 -189 -137 -61 -52
-229 -221 -260 -263 -14 -18 -30 -38 -35 -44 -17 -18 -85 -116 -85 -121 0 -3
-5 -11 -10 -18 -38 -45 -121 -205 -160 -307 -11 -30 -24 -64 -29 -75 -5 -11
-15 -40 -22 -65 -7 -25 -14 -49 -15 -55 -9 -31 -24 -95 -29 -125 -3 -19 -8
-46 -10 -60 -12 -58 -17 -123 -19 -255 -2 -121 3 -175 27 -305 10 -51 59 -186
86 -235 50 -90 73 -130 80 -135 4 -3 15 -16 24 -30 37 -55 166 -175 242 -224
139 -92 317 -163 495 -200 14 -3 34 -7 45 -9 11 -3 55 -10 99 -17 73 -11 101
-14 246 -25 66 -6 325 -6 395 -1 73 6 173 17 198 22 12 3 36 7 52 9 199 29
514 138 675 234 144 86 176 106 178 113 2 4 10 8 17 8 7 0 15 3 17 8 2 4 32
29 68 57 165 126 286 256 437 471 30 42 142 261 174 339 9 22 24 65 33 95 10
30 20 62 23 70 3 8 8 24 10 35 2 11 8 31 13 45 5 14 12 41 15 60 4 19 10 54
16 77 17 77 24 166 24 303 -1 116 -5 170 -19 250 -15 79 -77 244 -112 296 -13
19 -24 37 -24 40 0 24 -139 180 -226 254 -56 48 -237 157 -276 166 -5 1 -10 3
-13 4 -3 1 -8 3 -12 5 -5 1 -19 6 -33 12 -61 26 -218 67 -298 79 -20 3 -44 7
-52 9 -8 3 -40 7 -70 10 -30 2 -82 8 -115 11 -61 7 -433 13 -438 7z m230 -536
c42 -28 58 -82 58 -192 0 -118 -13 -217 -42 -330 -8 -33 -17 -71 -19 -85 -10
-56 -167 -578 -202 -670 -3 -8 -6 -18 -6 -22 -1 -3 -4 -10 -8 -14 -5 -4 -8
-14 -8 -21 0 -13 -33 -106 -60 -168 -5 -11 -21 -51 -36 -90 -87 -228 -188
-386 -284 -444 -68 -41 -175 -19 -207 42 -25 49 -36 162 -22 242 4 22 9 60 12
85 7 56 33 179 52 245 7 28 16 63 19 80 3 16 12 52 20 80 8 27 25 84 36 125
12 41 24 82 27 90 8 19 7 16 22 70 74 266 242 689 318 801 48 70 60 86 85 110
97 97 171 117 245 66z"/>
<path d="M25536 17123 c-2 -2 -27 -5 -57 -7 -116 -9 -374 -57 -411 -77 -10 -5
-18 -8 -18 -5 0 5 -172 -52 -235 -79 -220 -91 -378 -182 -545 -314 -84 -67
-241 -217 -295 -282 -71 -85 -155 -204 -155 -218 0 -5 -4 -11 -8 -13 -24 -9
-193 -382 -202 -443 0 -3 -2 -10 -4 -17 -8 -26 -26 -107 -32 -143 -3 -21 -8
-47 -10 -59 -24 -122 -24 -393 0 -508 3 -16 8 -38 10 -50 7 -41 56 -178 81
-228 107 -212 284 -380 506 -483 73 -34 259 -97 303 -103 12 -2 32 -6 46 -9
50 -11 136 -27 170 -31 19 -2 59 -6 88 -9 28 -3 76 -7 105 -10 60 -6 361 -6
427 0 48 4 110 11 177 20 66 8 264 53 311 69 23 8 46 16 50 17 18 4 30 8 77
25 28 9 69 25 93 35 23 10 44 19 47 19 2 1 49 24 102 51 251 130 488 321 655
529 55 68 142 196 159 233 7 15 17 27 22 27 6 0 7 3 4 7 -4 3 -1 13 6 22 11
14 60 116 102 216 67 160 129 444 130 602 0 29 4 53 8 53 5 0 6 4 2 9 -3 5 -7
49 -10 98 -7 147 -38 270 -103 403 -36 75 -98 172 -114 178 -4 2 -8 7 -8 12 0
9 -104 116 -156 160 -60 53 -254 169 -254 153 0 -3 -6 -1 -13 5 -17 15 -218
81 -265 88 -20 3 -45 7 -54 10 -25 7 -56 13 -105 19 -24 2 -48 7 -51 9 -20 12
-565 30 -576 19z m225 -524 c33 -17 56 -49 67 -91 10 -37 9 -233 -1 -274 -3
-12 -8 -37 -11 -55 -5 -30 -28 -141 -41 -194 -3 -11 -7 -29 -10 -40 -2 -11
-16 -60 -30 -110 -14 -49 -28 -97 -30 -105 -2 -8 -13 -44 -25 -80 -12 -36 -23
-73 -25 -82 -2 -9 -9 -26 -15 -37 -6 -12 -9 -21 -6 -21 3 0 -13 -53 -35 -117
-22 -65 -42 -122 -43 -128 -2 -5 -6 -17 -9 -25 -3 -8 -29 -78 -57 -155 -100
-269 -208 -457 -300 -520 -76 -52 -191 -40 -224 24 -30 56 -36 137 -21 266 5
39 9 79 10 90 1 11 5 31 8 45 4 14 18 75 32 135 15 61 28 117 30 125 13 49 26
96 29 105 1 6 8 30 15 55 51 185 162 518 232 698 116 296 246 474 365 500 45
10 63 8 95 -9z"/>
</g>
</svg>
